<?xml version="1.0" standalone="no"?>
<!DOCTYPE svg PUBLIC "-//W3C//DTD SVG 20010904//EN"
 "http://www.w3.org/TR/2001/REC-SVG-20010904/DTD/svg10.dtd">
<svg version="1.0" xmlns="http://www.w3.org/2000/svg"
 width="219.000000pt" height="230.000000pt" viewBox="0 0 219.000000 230.000000"
 preserveAspectRatio="xMidYMid meet">

<g transform="translate(0.000000,230.000000) scale(0.100000,-0.100000)"
fill="#000000" stroke="none">
<path d="M945 1672 c-27 -10 -68 -27 -90 -37 -56 -26 -167 -140 -199 -202
-129 -256 -17 -569 244 -678 25 -10 49 -22 53 -26 5 -3 -3 -30 -17 -58 -15
-28 -23 -51 -18 -51 44 0 303 94 403 147 115 59 215 189 243 313 55 238 -48
459 -262 562 -80 39 -89 41 -196 44 -88 3 -121 0 -161 -14z m130 -112 c25 -25
30 -38 29 -76 -1 -58 -28 -95 -84 -113 -37 -12 -46 -12 -76 3 -75 35 -94 128
-38 187 47 49 119 48 169 -1z m266 -33 c48 -32 67 -89 46 -139 -17 -41 -68
-78 -107 -78 -65 0 -127 74 -116 138 13 86 106 127 177 79z m-461 -182 c11
-10 25 -35 31 -55 37 -124 -120 -206 -203 -106 -41 50 -29 133 26 167 38 25
116 21 146 -6z m574 -105 c41 -37 53 -84 32 -133 -19 -47 -51 -67 -107 -67
-84 0 -133 67 -108 149 24 81 119 107 183 51z m-478 -171 c35 -32 50 -90 35
-127 -45 -107 -182 -105 -220 3 -12 35 -11 45 2 77 32 75 127 100 183 47z
m282 -45 c34 -22 56 -75 48 -116 -13 -71 -105 -118 -166 -86 -42 22 -72 77
-65 118 17 94 104 134 183 84z"/>
</g>
</svg>
